<?xml version="1.0" standalone="no"?>
<!DOCTYPE svg PUBLIC "-//W3C//DTD SVG 20010904//EN"
 "http://www.w3.org/TR/2001/REC-SVG-20010904/DTD/svg10.dtd">
<svg version="1.0" xmlns="http://www.w3.org/2000/svg"
 width="1280.000000pt" height="1265.000000pt" viewBox="0 0 1280.000000 1265.000000"
 preserveAspectRatio="xMidYMid meet">
<g transform="translate(0.000000,1265.000000) scale(0.100000,-0.100000)"
fill="#3bd423" stroke="none">
<path d="M6439 12646 c-2 -2 -85 -9 -184 -15 -616 -40 -1170 -149 -1729 -341
-1222 -418 -2307 -1211 -3098 -2265 -1249 -1665 -1615 -3857 -968 -5805 319
-960 824 -1766 1550 -2473 464 -452 962 -804 1545 -1092 728 -359 1486 -567
2280 -625 83 -6 191 -15 242 -20 121 -13 337 -13 498 0 532 44 708 66 1025
130 986 200 1903 625 2707 1257 72 56 140 103 150 103 10 0 81 63 163 146 80
80 232 227 338 326 109 103 192 189 192 199 0 10 33 55 73 101 889 1023 1442
2344 1546 3698 6 74 16 196 22 270 19 212 -3 646 -52 1030 -207 1648 -1073
3139 -2406 4141 -928 698 -2072 1125 -3233 1209 -85 6 -196 15 -247 20 -88 10
-405 14 -414 6z m513 -966 c1139 -77 2170 -488 3039 -1211 161 -134 497 -470
629 -629 636 -766 1025 -1640 1170 -2630 42 -292 60 -758 41 -1050 -28 -413
-80 -731 -181 -1110 -175 -651 -496 -1309 -909 -1860 -111 -149 -249 -314
-265 -318 -23 -5 -870 878 -4621 4818 -1369 1438 -2527 2654 -2572 2702 -46
47 -83 90 -83 95 0 23 392 298 605 425 169 100 189 110 374 203 646 322 1349
514 2071 564 171 12 528 12 702 1z m-4069 -2265 c188 -198 401 -421 473 -495
279 -287 2730 -2867 2754 -2898 22 -29 249 -267 1335 -1397 122 -126 635 -664
1140 -1195 505 -531 926 -966 936 -968 23 -4 261 -252 256 -267 -12 -36 -497
-373 -727 -505 -606 -349 -1346 -599 -2025 -685 -442 -55 -908 -59 -1325 -9
-960 114 -1855 479 -2605 1063 -857 667 -1491 1602 -1790 2640 -123 430 -187
824 -204 1271 -48 1220 312 2404 1035 3411 90 126 250 327 315 397 l41 43 25
-23 c14 -13 179 -185 366 -383z"/>
</g>
</svg>
