<?xml version="1.0" standalone="no"?>
<!DOCTYPE svg PUBLIC "-//W3C//DTD SVG 20010904//EN"
 "http://www.w3.org/TR/2001/REC-SVG-20010904/DTD/svg10.dtd">
<svg version="1.0" xmlns="http://www.w3.org/2000/svg"
 width="468.000000pt" height="533.000000pt" viewBox="0 0 468.000000 533.000000"
 preserveAspectRatio="xMidYMid meet">

<g transform="translate(0.000000,533.000000) scale(0.100000,-0.100000)"
fill="#3bd423" stroke="none">
<path d="M1029 5302 c-20 -17 -23 -30 -30 -153 -12 -199 -15 -221 -33 -231
-31 -18 -47 -69 -56 -183 -6 -63 -7 -121 -4 -130 4 -8 17 -18 30 -21 13 -3 24
-12 24 -18 0 -7 -18 -183 -40 -392 -22 -208 -45 -428 -51 -489 -10 -99 -14
-113 -39 -140 -40 -44 -58 -84 -71 -164 -14 -83 -1 -205 27 -264 18 -38 13
-110 -51 -702 -8 -71 -19 -175 -25 -230 -10 -97 -24 -228 -55 -520 -8 -77 -21
-205 -30 -285 -8 -80 -19 -188 -25 -240 -5 -52 -23 -223 -40 -380 -16 -157
-35 -331 -41 -387 -6 -55 -9 -113 -5 -127 9 -36 83 -57 221 -63 97 -5 113 -3
132 13 24 20 25 26 104 739 10 99 26 237 34 308 29 245 44 383 60 527 27 245
105 932 111 983 4 26 10 47 14 47 4 0 48 -25 96 -56 181 -114 368 -194 453
-194 64 0 109 20 229 100 64 43 118 77 120 75 2 -2 -4 -71 -12 -154 -23 -215
-20 -356 9 -559 l25 -173 -41 -61 c-23 -33 -59 -97 -79 -142 -34 -72 -57 -140
-156 -458 -13 -42 -38 -100 -55 -129 -78 -133 -155 -364 -168 -503 l-6 -70
-63 -18 c-39 -12 -67 -27 -76 -41 -28 -43 -50 -317 -26 -332 5 -3 74 -10 152
-16 238 -16 459 -39 533 -54 111 -24 140 -20 239 30 49 25 116 50 148 56 32 7
61 16 64 21 10 15 6 139 -7 208 -9 56 -8 80 11 179 26 137 88 383 127 501 l28
85 45 -4 c65 -5 75 -13 94 -80 42 -152 49 -219 52 -516 l2 -289 39 -30 c21
-17 71 -61 112 -98 40 -37 79 -68 87 -68 16 0 47 9 554 165 206 63 381 115
388 115 9 0 11 10 8 33 -23 136 -30 167 -46 204 -14 31 -26 44 -47 49 -15 3
-32 7 -38 8 -6 2 -10 58 -11 142 -1 168 -14 263 -60 454 -34 136 -35 149 -25
212 6 37 11 96 11 131 l0 65 78 -5 c73 -5 80 -4 107 19 l29 26 -32 69 c-51
112 -40 210 16 138 11 -14 25 -54 32 -90 16 -86 42 -109 118 -103 56 5 91 25
126 72 32 43 29 153 -6 226 -46 93 -127 158 -222 175 -31 6 -41 14 -52 41 -18
42 -18 41 6 47 16 4 20 14 20 44 0 82 -98 403 -188 615 l-50 117 34 26 c108
82 146 147 152 262 7 120 5 121 -75 68 -40 -27 -78 -45 -95 -45 -67 0 -127 59
-199 192 -24 45 -54 94 -66 109 -29 34 -29 35 7 54 56 29 77 115 45 191 l-15
36 -24 -29 c-21 -24 -32 -28 -73 -28 -39 0 -58 6 -86 28 -52 40 -60 58 -41 97
14 27 16 65 13 251 l-4 219 290 0 c297 0 315 2 315 38 0 29 -213 226 -325 301
-191 127 -488 260 -681 304 l-91 20 -24 46 -24 46 -88 -2 c-52 0 -94 -6 -102
-13 -9 -7 -15 -30 -15 -54 l0 -41 -141 -65 c-266 -122 -532 -302 -694 -471
-96 -100 -135 -151 -159 -211 -25 -58 -12 -62 141 -43 142 17 443 36 455 29 5
-3 8 -26 8 -51 0 -71 29 -251 52 -318 11 -33 29 -70 40 -82 17 -19 19 -25 8
-38 -8 -10 -11 -33 -8 -65 l5 -49 -61 -21 c-82 -28 -102 -40 -129 -78 -21 -32
-25 -33 -97 -36 -92 -3 -159 -33 -258 -116 -53 -45 -170 -173 -203 -223 -3 -5
-51 10 -105 34 -54 23 -130 52 -169 64 l-70 22 4 39 c4 50 4 45 2 73 0 13 -16
38 -34 55 l-33 31 17 155 c54 487 90 799 94 828 5 26 11 32 30 32 45 0 58 46
53 184 -5 116 -6 120 -33 142 l-28 22 12 74 c6 41 16 114 21 163 17 162 -12
185 -239 185 -120 0 -142 -2 -162 -18z m319 -58 c18 -13 22 -24 22 -72 0 -56
-26 -261 -34 -269 -2 -3 -65 1 -139 8 -107 10 -137 16 -140 29 -2 8 -1 77 2
153 6 121 9 141 26 153 28 21 232 20 263 -2z m1559 -169 c12 -22 23 -43 23
-46 0 -3 -26 -11 -57 -17 l-58 -10 65 6 c99 10 128 7 150 -13 14 -12 24 -15
28 -9 8 13 231 -69 244 -89 5 -9 -13 -13 -75 -15 -76 -3 -83 -1 -97 20 -27 40
-62 79 -68 74 -2 -3 13 -25 34 -48 l38 -43 -69 -11 -70 -12 74 2 74 1 24 -48
c24 -46 51 -152 42 -160 -2 -3 -68 -8 -146 -12 l-143 -7 -1 69 c-1 37 -5 82
-10 98 -5 20 -6 11 -2 -27 3 -32 2 -77 -1 -101 l-7 -43 -107 -17 c-60 -9 -116
-17 -125 -17 -19 0 -22 33 -11 139 l7 61 40 11 c40 11 116 24 191 33 43 6 61
16 29 16 -14 0 -25 10 -32 28 l-10 27 2 -29 2 -29 -104 -19 c-57 -10 -105 -17
-107 -15 -6 5 36 130 47 142 6 6 29 16 52 22 l42 13 -44 -6 c-43 -5 -44 -4
-29 13 9 10 18 36 20 58 3 39 4 40 48 46 67 9 73 7 97 -36z m-197 -89 c0 -2
-9 -6 -20 -9 -11 -3 -18 -1 -14 4 5 9 34 13 34 5z m-30 -99 l-23 -74 -54 -13
c-30 -6 -52 -14 -50 -17 3 -2 24 1 47 7 23 6 44 10 46 8 2 -2 1 -50 -3 -105
l-6 -101 -148 -36 c-82 -20 -155 -39 -164 -42 -23 -9 -19 41 10 128 14 40 25
74 25 75 0 2 40 15 90 30 49 14 88 29 85 31 -4 4 -105 -21 -142 -35 -22 -8
-15 11 26 74 26 41 50 65 77 78 47 23 198 74 203 69 2 -2 -7 -37 -19 -77z
m675 -7 c3 -5 -1 -10 -9 -10 -9 0 -16 5 -16 10 0 6 4 10 9 10 6 0 13 -4 16
-10z m-41 -19 c13 -6 36 -29 50 -53 25 -43 59 -158 50 -167 -5 -6 -65 -4 -135
5 l-46 5 -13 57 c-7 31 -23 78 -36 104 -13 26 -24 50 -24 53 0 9 128 5 154 -4z
m-1999 -14 l80 -12 7 -50 c18 -139 3 -209 -39 -186 -30 15 -272 43 -345 39
l-61 -3 7 98 c4 54 9 104 13 112 4 12 30 15 132 14 69 0 162 -6 206 -12z
m2197 -39 c97 -50 106 -57 165 -136 35 -45 63 -86 63 -91 0 -4 -21 -2 -48 4
-26 7 -89 20 -140 29 -51 8 -97 18 -102 21 -4 2 -11 19 -14 37 -4 18 -24 68
-45 111 l-39 77 29 0 c15 0 74 -24 131 -52z m-1122 -20 c-30 -55 -32 -57 -128
-95 -53 -21 -101 -40 -105 -42 -5 -2 -4 6 2 17 10 19 251 186 258 179 1 -2
-11 -29 -27 -59z m1334 -100 c76 -52 186 -139 206 -163 14 -17 13 -18 -5 -11
-11 5 -51 19 -90 32 -38 13 -73 31 -78 40 -5 8 -31 44 -57 79 -27 36 -47 65
-43 65 3 0 33 -19 67 -42z m-1400 -45 c-12 -38 -24 -83 -26 -102 l-4 -35 -119
-37 c-66 -21 -121 -36 -123 -35 -5 6 38 126 55 155 10 14 18 27 19 29 3 6 199
92 210 92 6 0 2 -27 -12 -67z m-194 -1 c0 -4 -12 -15 -27 -24 -16 -10 -23 -18
-16 -18 8 0 4 -18 -12 -54 -13 -29 -26 -69 -30 -87 -6 -33 -10 -36 -113 -74
-58 -22 -111 -42 -116 -44 -16 -6 34 59 98 127 33 35 84 78 114 94 29 17 50
33 47 36 -3 3 5 16 17 29 22 23 38 30 38 15z m1206 -52 c11 -5 21 -14 21 -22
0 -7 8 -65 16 -128 28 -204 31 -420 7 -405 -4 3 -11 26 -16 52 -4 27 -9 55
-11 63 -2 8 -5 41 -7 72 -3 32 -9 66 -15 75 -8 14 -9 9 -4 -19 7 -46 0 -47
-33 -8 -28 33 -89 56 -126 47 -13 -4 -34 -16 -46 -28 -22 -19 -27 -20 -68 -9
-90 25 -181 -12 -229 -95 -15 -25 -30 -45 -33 -45 -9 0 -51 44 -79 83 -13 17
-23 27 -23 23 0 -4 18 -33 40 -63 22 -31 40 -63 40 -70 0 -24 -50 -101 -83
-129 -37 -31 -208 -115 -219 -108 -44 28 -98 340 -98 568 l0 52 133 31 c227
54 281 64 417 73 118 9 384 2 416 -10z m-2033 -29 c4 -4 -9 -146 -28 -317 -20
-170 -45 -392 -56 -494 -11 -102 -22 -191 -24 -197 -2 -7 -14 -13 -25 -13 -60
0 -103 -49 -139 -160 -44 -136 -46 -262 -7 -338 16 -32 75 -92 89 -92 11 0 5
-117 -17 -295 -8 -66 -19 -165 -25 -220 -6 -55 -20 -179 -31 -275 -11 -96 -34
-292 -50 -435 -16 -143 -47 -424 -70 -625 -23 -201 -53 -473 -68 -605 l-27
-240 -85 0 c-47 0 -102 4 -124 8 l-39 8 7 57 c3 31 17 167 31 302 14 135 32
306 40 380 8 74 20 178 25 230 54 512 71 678 85 815 8 88 18 171 20 185 3 14
9 72 15 130 11 116 33 320 55 535 9 77 27 246 40 375 13 129 32 300 40 380 9
80 27 249 40 375 46 446 56 539 60 545 5 7 258 -10 268 -19z m2274 0 c123 -24
304 -71 317 -83 6 -4 -92 -8 -216 -8 -125 0 -229 3 -231 8 -3 4 -8 28 -12 55
-7 45 -6 47 16 47 13 0 70 -9 126 -19z m-1269 -148 l-3 -58 -90 -7 c-49 -4
-148 -15 -218 -23 -71 -9 -131 -14 -134 -12 -8 9 395 155 430 156 16 1 18 -6
15 -56z m931 -161 c29 -29 49 -84 76 -212 21 -100 45 -151 101 -210 62 -66
132 -90 200 -67 42 14 44 13 44 -5 0 -11 -15 -35 -34 -54 -28 -28 -42 -34 -75
-34 -24 0 -41 -5 -41 -11 0 -7 17 -31 38 -54 22 -22 52 -63 67 -91 78 -138
107 -182 140 -216 l37 -38 -34 0 c-56 0 -130 45 -204 123 -61 64 -69 69 -72
49 -8 -52 76 -152 165 -196 102 -52 245 -40 346 29 34 23 37 24 37 7 0 -38
-62 -142 -111 -186 -103 -92 -215 -136 -350 -136 -107 0 -188 23 -259 74 -91
66 -97 40 -9 -45 65 -63 137 -102 218 -120 58 -12 58 -23 -3 -49 -121 -53
-241 -46 -375 21 -165 82 -285 242 -408 542 -25 62 -58 138 -74 169 -38 75
-106 146 -148 154 -38 8 -57 39 -47 79 7 27 64 68 170 121 79 39 120 82 186
193 89 151 156 195 239 154 l40 -20 27 28 c36 38 76 38 113 1z m-720 -651 c6
-20 15 -64 21 -98 16 -90 76 -306 110 -393 15 -41 59 -145 95 -230 160 -372
219 -591 195 -722 -21 -112 -16 -110 -252 -98 -194 10 -210 12 -357 37 l-94
16 7 171 c10 251 44 658 81 971 22 186 20 256 -6 289 -14 18 -18 31 -12 37 14
14 176 66 190 61 7 -2 17 -20 22 -41z m55 -54 c14 -24 52 -109 85 -189 66
-161 98 -228 145 -303 18 -27 40 -72 50 -100 10 -27 51 -133 91 -235 129 -327
162 -508 113 -612 -21 -43 -26 -48 -56 -48 l-34 0 8 48 c32 171 -24 386 -211
812 -91 209 -132 324 -179 504 -20 73 -38 141 -42 150 -12 31 5 16 30 -27z
m-256 -28 c14 -27 13 -54 -23 -389 -30 -277 -62 -672 -78 -965 -2 -36 -4 -40
-27 -37 -49 7 -50 12 -50 211 0 217 10 297 81 676 41 218 53 305 55 395 1 63
2 121 3 128 1 20 24 9 39 -19z m-1057 -55 c23 -21 24 -59 5 -146 -8 -35 -17
-83 -20 -108 l-6 -45 16 28 c12 23 18 26 30 17 26 -22 36 -83 20 -127 -23 -66
-56 -123 -70 -123 -27 0 -101 31 -124 53 -13 12 -33 40 -44 62 -43 83 1 335
69 394 21 18 34 22 66 18 21 -3 47 -13 58 -23z m953 -9 c9 -47 -6 -155 -60
-423 -24 -122 -44 -224 -44 -226 0 -2 -20 -11 -44 -20 -25 -10 -93 -48 -152
-86 -58 -38 -122 -72 -141 -76 -51 -10 -152 21 -278 85 -114 58 -305 179 -305
193 0 4 13 8 29 8 49 0 101 82 121 192 9 47 4 89 -17 143 -7 20 68 -3 218 -67
79 -34 126 -48 141 -44 13 3 45 34 73 68 80 101 146 167 212 214 75 54 122 72
189 73 51 1 52 1 58 -34z m-1368 -2 c-2 -10 -8 -54 -12 -98 -8 -96 -22 -141
-24 -80 -4 101 11 195 31 195 6 0 8 -8 5 -17z m3018 -596 c73 -172 178 -492
188 -572 3 -32 -7 -37 -103 -49 l-56 -7 -12 93 c-19 145 -58 311 -107 457 -25
73 -44 134 -42 135 4 3 82 34 88 35 3 1 23 -41 44 -92z m-833 -52 c69 -52 153
-450 125 -597 -6 -32 -31 -57 -43 -44 -2 2 -8 44 -13 93 -14 151 -45 255 -146
498 -36 88 -68 167 -71 175 -4 8 23 -12 58 -45 35 -34 76 -70 90 -80z m688
-75 c47 -172 67 -266 85 -415 14 -109 14 -110 -9 -146 -22 -35 -28 -37 -102
-48 -132 -18 -364 -43 -368 -39 -3 2 0 22 7 44 15 57 -5 293 -47 545 -4 26 -3
26 73 32 133 9 238 64 293 154 13 20 24 32 25 27 1 -5 21 -74 43 -154z m-532
1 l73 -26 0 -50 c0 -28 9 -118 21 -200 25 -176 28 -295 10 -348 l-13 -38 -42
46 c-23 25 -47 45 -53 45 -6 0 -8 37 -5 103 6 144 -32 343 -93 491 -7 17 -6
18 11 11 10 -4 52 -20 91 -34z m848 -603 l15 -38 -50 -25 c-107 -54 -192 -7
-129 73 17 22 31 28 77 32 31 3 60 3 64 0 4 -3 14 -22 23 -42z m-880 -19 c9
-42 3 -44 -24 -8 -18 25 -21 33 -10 40 18 11 26 4 34 -32z m64 5 c41 -34 39
-44 -9 -44 -33 0 -40 3 -40 19 0 11 -3 26 -6 35 -10 25 20 19 55 -10z m-96
-18 c19 -29 14 -36 -30 -36 -37 0 -40 6 -17 38 19 28 28 28 47 -2z m657 -19
c0 -20 -7 -24 -66 -34 -82 -14 -100 -28 -56 -44 21 -7 34 -20 38 -36 8 -30 -7
-42 -56 -44 l-35 -2 35 -6 c28 -5 31 -8 16 -14 -13 -5 -17 -14 -12 -30 6 -24
5 -24 -142 -36 -82 -6 -173 -14 -203 -18 l-54 -6 32 34 c17 19 36 46 42 61 7
18 20 30 38 34 47 10 232 69 228 72 -5 6 -189 -40 -217 -54 -35 -18 -38 -18
-38 4 0 9 -7 30 -15 46 -9 16 -14 30 -13 31 2 1 89 12 195 25 105 12 206 26
225 30 53 13 58 11 58 -13z m-1562 -76 c2 -28 -1 -51 -6 -51 -22 0 -41 28 -42
65 -3 56 -3 55 23 46 18 -7 23 -17 25 -60z m1938 44 c61 -18 118 -64 145 -117
23 -44 35 -123 25 -162 -7 -30 -59 -66 -93 -66 -27 0 -36 16 -52 93 -7 32 -24
70 -37 87 l-25 29 26 7 c30 7 106 -10 143 -33 27 -17 27 -17 -2 15 -51 55
-139 67 -214 31 -81 -40 -103 -139 -52 -239 11 -21 20 -42 20 -45 0 -11 -84
-4 -113 10 -28 13 -35 25 -50 82 -10 38 -18 75 -18 83 1 8 4 56 7 106 l6 92
36 -4 c26 -3 52 3 87 20 59 29 94 31 161 11z m-1776 -15 c63 -8 397 -22 462
-20 3 0 -4 -19 -16 -42 -21 -41 -26 -44 -87 -55 -35 -7 -82 -13 -104 -14 -30
-2 -23 -4 25 -8 36 -3 84 -3 107 0 42 6 43 5 78 -47 19 -30 35 -56 35 -59 0
-9 -169 -5 -290 6 -119 11 -309 45 -323 58 -4 4 -10 24 -14 45 -5 32 -4 36 12
29 15 -5 15 -3 -3 15 -16 16 -22 34 -22 68 0 44 1 45 28 40 15 -3 65 -10 112
-16z m834 -31 c-8 -17 -34 -52 -57 -78 l-42 -46 45 36 c25 20 54 55 65 77 22
44 45 55 45 21 0 -37 -31 -88 -84 -136 -42 -38 -45 -43 -17 -27 39 22 89 80
97 112 8 28 24 29 24 2 0 -34 -26 -72 -77 -116 -48 -41 -49 -41 -151 -48
l-102 -8 0 38 c0 32 7 45 49 85 73 70 150 119 189 119 l33 0 -17 -31z m-282
15 c4 -3 0 -17 -8 -32 -8 -15 -13 -49 -13 -77 l2 -50 7 57 c9 70 32 108 65
108 l24 0 -24 -45 c-13 -25 -29 -70 -36 -100 -7 -30 -16 -55 -21 -55 -15 0
-68 83 -68 107 0 45 52 108 72 87z m154 -9 c-10 -7 -36 -30 -58 -50 -46 -43
-56 -41 -32 7 26 52 34 58 73 58 33 -1 34 -2 17 -15z m704 -31 c0 -17 -6 -24
-19 -24 -25 0 -34 37 -13 49 22 12 32 5 32 -25z m-1570 -53 c15 -28 12 -61 -5
-61 -14 0 -36 57 -28 73 7 13 22 7 33 -12z m1570 -15 c0 -8 -4 -17 -9 -20 -15
-10 -40 5 -34 20 7 18 43 18 43 0z m-1365 -152 c44 -8 95 -14 113 -14 17 0 32
-4 32 -8 0 -5 -52 -64 -116 -133 -209 -222 -271 -314 -277 -405 -2 -38 -1 -39
28 -36 70 6 142 3 169 -7 16 -7 37 -9 47 -6 11 4 43 52 75 113 59 111 257 434
282 458 15 16 142 20 142 5 0 -21 -61 -193 -100 -281 -212 -485 -247 -588
-335 -1017 -14 -65 -423 -84 -618 -28 -26 8 -73 25 -105 39 -31 13 -64 26 -73
29 -13 4 -16 15 -12 54 14 147 72 326 157 486 39 75 66 146 101 266 66 229
102 322 176 451 22 38 48 74 56 78 9 6 47 1 97 -10 44 -11 117 -26 161 -34z
m1384 21 c3 -17 1 -18 -13 -6 -12 10 -23 11 -45 3 -21 -8 -41 -7 -68 1 l-38
11 40 7 c73 12 119 6 124 -16z m-192 0 c7 -21 72 -53 120 -61 30 -4 44 -2 57
11 9 10 19 16 21 13 2 -2 7 -34 11 -71 6 -56 4 -68 -10 -73 -9 -3 -16 -12 -16
-19 0 -7 7 -16 16 -19 14 -5 16 -17 10 -73 -4 -37 -8 -69 -10 -71 -2 -1 -15 3
-30 9 -30 14 -35 39 -8 39 27 0 44 21 31 37 -7 7 -18 13 -25 13 -9 0 -14 12
-14 33 -1 89 -30 100 -44 16 -5 -34 -15 -59 -27 -67 -23 -16 -25 -42 -4 -42
23 0 18 -24 -10 -50 -28 -26 -33 -60 -10 -60 9 0 15 -9 15 -21 0 -14 5 -19 17
-17 14 3 24 20 38 64 0 1 14 5 30 8 l30 6 1 -52 c1 -29 16 -104 33 -167 43
-155 64 -329 58 -464 -2 -59 -7 -110 -10 -113 -3 -3 -31 -11 -64 -18 -138 -30
-494 -130 -556 -156 -37 -15 -69 -25 -71 -22 -2 4 1 43 7 87 18 138 -19 374
-78 503 -14 30 -25 68 -26 86 l-1 31 -8 -29 c-7 -22 -4 -39 14 -75 32 -64 63
-164 76 -241 11 -73 12 -282 1 -320 -8 -27 -6 -27 -107 -4 l-71 17 -6 181 c-6
173 -27 324 -56 399 -16 42 -13 57 10 57 11 0 42 10 70 21 40 17 52 19 64 9
17 -14 21 0 5 16 -7 7 -3 25 11 54 34 70 50 204 48 395 -2 136 0 170 11 170 7
0 38 -49 70 -110 59 -115 104 -245 116 -330 7 -55 19 -85 35 -85 5 0 33 17 62
39 68 50 146 95 154 88 3 -4 0 -27 -7 -52 -9 -32 -10 -49 -2 -57 20 -20 43 36
48 118 3 43 10 84 15 91 6 6 8 17 4 23 -9 14 -32 13 -37 -2 -3 -7 -21 8 -43
32 -21 25 -87 93 -146 152 l-107 106 71 6 c40 4 90 9 111 13 32 4 38 3 33 -10
-6 -16 21 -47 41 -47 21 0 23 20 2 37 -19 16 -19 18 -3 25 27 10 33 9 40 -7z
m-330 -79 c32 -47 44 -55 23 -15 -6 11 -7 19 -1 19 11 0 281 -278 281 -289 0
-5 -36 -29 -79 -54 -44 -26 -82 -51 -86 -57 -15 -24 -33 -8 -40 36 -16 107
-84 272 -160 387 l-19 29 24 -4 c14 -2 36 -21 57 -52z m-191 -8 c1 -118 -17
-357 -32 -412 -30 -113 -58 -130 -195 -115 -46 5 -84 11 -85 12 -2 2 17 59 42
127 48 134 109 331 119 392 7 40 12 41 115 46 l35 2 1 -52z m-416 36 c0 -3
-18 -29 -41 -58 l-41 -51 55 58 c54 56 67 66 67 47 0 -5 -45 -80 -100 -167
-56 -87 -124 -204 -153 -261 l-52 -103 -40 7 c-22 4 -65 8 -95 10 -30 1 -56 3
-58 3 -1 1 5 17 13 37 25 59 96 151 220 284 64 69 128 142 142 163 20 28 32
37 54 37 16 0 29 -3 29 -6z m1299 -1217 c20 -9 29 -24 37 -62 24 -100 23 -101
-58 -125 -40 -12 -107 -32 -148 -45 -41 -13 -138 -42 -215 -65 -77 -23 -190
-58 -251 -76 -61 -19 -118 -34 -127 -34 -20 0 -30 72 -25 184 l3 80 60 24
c117 48 352 106 550 136 46 7 144 -3 174 -17z m-2262 -72 c20 -8 34 -17 32
-19 -2 -2 -32 -1 -66 2 -61 4 -81 16 -45 25 31 8 42 7 79 -8z m1410 -40 l51
-15 4 -143 c2 -78 2 -144 0 -146 -1 -3 -21 13 -45 35 -23 23 -63 58 -89 79
l-48 37 0 84 0 84 38 0 c21 0 61 -7 89 -15z m-1262 -25 c127 -22 208 -30 293
-30 113 0 248 17 304 39 26 10 27 9 38 -42 6 -28 13 -77 17 -109 l6 -57 -39
-6 c-22 -4 -85 -29 -140 -56 l-101 -49 -67 15 c-79 18 -377 51 -553 61 l-123
7 0 51 c1 88 18 180 36 193 29 21 141 15 329 -17z"/>
<path d="M2851 4975 c0 -5 6 -21 14 -35 8 -14 14 -20 14 -15 0 6 -6 21 -14 35
-8 14 -14 21 -14 15z"/>
<path d="M3070 4563 c-54 -21 -77 -24 -135 -20 -41 3 -60 1 -45 -3 55 -17 134
-10 205 20 85 35 66 37 -25 3z"/>
<path d="M3288 4550 c-21 -3 -64 -23 -97 -43 -33 -21 -73 -40 -90 -43 -37 -8
-33 -19 9 -27 21 -5 30 -12 30 -27 0 -26 34 -60 60 -60 31 0 61 57 54 99 l-7
33 42 -4 c36 -3 40 -2 25 9 -10 7 -21 13 -26 13 -17 0 -6 16 25 38 34 23 33
24 -25 12z m-72 -115 c8 -20 -13 -45 -38 -45 -21 0 -33 22 -24 45 7 20 55 19
62 0z"/>
<path d="M2680 4475 l-45 -13 38 -1 c20 -1 37 -4 37 -8 0 -5 -23 -19 -50 -32
-52 -26 -62 -39 -16 -21 15 5 65 10 112 10 82 0 84 -1 84 -24 0 -14 12 -39 27
-57 27 -31 27 -32 5 -27 -12 3 -20 2 -16 -3 8 -14 41 -11 75 6 34 18 52 55 43
90 -4 16 0 26 13 34 28 16 -1 31 -62 31 -27 0 -77 7 -110 15 -71 17 -77 17
-135 0z m239 -79 c14 -16 5 -42 -16 -50 -17 -7 -43 10 -43 28 0 7 5 17 12 24
16 16 33 15 47 -2z"/>
<path d="M3110 4153 c-59 -8 -100 -25 -111 -44 -11 -21 -10 -21 18 0 36 27
157 40 194 21 21 -11 22 -11 9 3 -16 16 -71 26 -110 20z"/>
<path d="M3560 2709 c0 -18 -7 -38 -17 -46 -17 -13 -17 -14 3 -29 18 -13 20
-20 14 -50 -8 -34 -35 -74 -51 -74 -4 0 -10 8 -12 18 -3 9 -5 1 -6 -18 0 -20
8 -53 19 -75 25 -50 25 -54 -4 -65 -35 -13 -49 -42 -31 -66 12 -17 17 -17 35
-6 12 7 23 12 23 10 28 -58 51 -58 55 0 3 35 7 42 23 42 12 0 32 -9 46 -20 36
-28 71 -26 85 5 8 19 8 29 -4 47 -9 14 -13 36 -11 55 8 51 -4 83 -29 83 -17 0
-19 -3 -10 -12 17 -17 15 -79 -4 -106 -12 -17 -19 -20 -34 -12 -10 5 -28 10
-39 10 -12 0 -21 7 -21 15 0 8 9 15 20 15 10 0 24 9 30 19 22 43 5 141 -25
141 -18 0 -20 32 -4 62 7 14 8 23 1 27 -6 3 -14 19 -17 34 -10 38 -35 35 -35
-4z m60 -196 c0 -43 -16 -66 -26 -39 -4 9 -3 37 1 63 8 56 25 41 25 -24z m-60
-28 c0 -28 -15 -33 -24 -8 -4 9 -1 20 6 25 18 11 18 11 18 -17z"/>
<path d="M3636 1585 c-31 -28 -30 -48 1 -53 13 -2 29 7 42 24 39 49 4 73 -43
29z"/>
</g>
</svg>
