<?xml version="1.0" standalone="no"?>
<!DOCTYPE svg PUBLIC "-//W3C//DTD SVG 20010904//EN"
 "http://www.w3.org/TR/2001/REC-SVG-20010904/DTD/svg10.dtd">
<svg version="1.0" xmlns="http://www.w3.org/2000/svg"
 width="446.000000pt" height="521.000000pt" viewBox="0 0 446.000000 521.000000"
 preserveAspectRatio="xMidYMid meet">

<g transform="translate(0.000000,521.000000) scale(0.100000,-0.100000)"
fill="#3bd423" stroke="none">
<path d="M3413 3818 c-6 -7 -29 -47 -52 -90 -49 -89 -49 -89 -154 -148 -45
-25 -81 -49 -80 -55 0 -5 43 -32 94 -60 l92 -50 51 -92 c28 -51 56 -93 63 -93
6 0 33 41 60 91 l48 91 93 52 c51 28 94 56 94 61 1 6 -23 24 -53 42 -138 81
-136 79 -178 155 -57 103 -65 113 -78 96z m53 -263 c15 -23 15 -27 0 -50 -21
-32 -59 -33 -80 -3 -20 29 -20 34 4 58 27 27 56 25 76 -5z"/>
<path d="M2160 3751 c-190 -62 -341 -188 -420 -348 -75 -152 -103 -382 -60
-497 12 -31 38 -71 59 -93 63 -62 242 -146 426 -198 129 -37 176 -56 243 -96
l84 -51 66 12 c205 35 330 120 399 268 44 95 63 196 63 341 0 318 -136 532
-399 626 -158 57 -350 72 -461 36z m316 -701 c56 -30 105 -50 125 -50 18 0 59
15 95 35 97 55 172 47 200 -20 31 -74 8 -172 -47 -200 -39 -21 -72 -19 -164
11 -92 30 -114 28 -259 -13 -88 -24 -101 -26 -144 -14 -126 33 -164 171 -70
258 32 30 65 42 122 42 41 1 65 -8 142 -49z"/>
<path d="M2748 2983 c-51 -37 -57 -55 -32 -91 33 -47 102 -11 89 46 -5 25 -3
31 14 37 24 7 26 16 9 33 -18 18 -28 14 -80 -25z"/>
<path d="M2352 2988 c-18 -18 -15 -35 7 -41 14 -3 18 -11 14 -25 -8 -32 14
-62 46 -62 34 0 51 18 54 56 2 24 -5 32 -48 56 -58 32 -57 32 -73 16z"/>
<path d="M3573 2823 l6 -108 -56 -98 c-31 -54 -53 -100 -50 -104 3 -3 56 -5
117 -4 l111 2 88 -50 c49 -28 91 -51 95 -51 4 0 6 49 5 109 l-1 108 56 96 c31
52 56 98 56 102 0 3 -54 5 -120 4 l-120 -2 -57 35 c-65 40 -119 68 -129 68 -4
0 -4 -48 -1 -107z m191 -119 c49 -48 -15 -113 -66 -67 -22 20 -23 32 -2 61 18
26 46 28 68 6z"/>
<path d="M986 2790 c-84 -61 -115 -70 -252 -70 -39 0 -54 -4 -54 -14 0 -7 25
-47 55 -88 70 -97 75 -111 75 -219 0 -68 3 -89 13 -89 8 0 51 26 96 59 l83 59
115 7 c85 5 113 10 110 20 -3 6 -33 50 -66 97 -49 69 -61 93 -61 124 0 81 -13
174 -24 173 -6 0 -46 -27 -90 -59z m-2 -176 c49 -48 -15 -113 -66 -67 -22 20
-23 41 -1 65 20 22 46 23 67 2z"/>
<path d="M1726 2680 c-40 -110 -64 -214 -81 -363 -22 -190 -10 -244 60 -273
60 -25 297 -13 328 16 5 4 -14 21 -41 39 -27 17 -58 41 -68 53 -19 21 -19 21
3 9 30 -15 46 -14 39 4 -3 8 -9 23 -12 33 -4 9 18 -7 47 -35 62 -60 84 -67 75
-25 -14 64 -24 141 -21 159 2 10 7 35 10 56 10 64 20 40 20 -51 1 -117 19
-185 63 -234 31 -35 135 -98 161 -98 5 0 12 20 15 45 10 65 26 66 26 2 0 -37
5 -59 16 -68 18 -15 165 -25 218 -15 19 4 43 14 51 23 15 14 13 19 -22 55 -30
31 -38 46 -38 76 0 63 23 100 76 128 38 19 49 30 49 48 0 33 -29 55 -86 63
-45 6 -55 13 -129 88 -96 99 -155 131 -317 173 -137 36 -219 68 -319 122 -39
22 -77 40 -84 40 -7 0 -24 -31 -39 -70z"/>
<path d="M1645 2679 c-82 -52 -133 -98 -161 -145 -24 -40 -26 -53 -22 -117 3
-51 13 -87 31 -123 27 -53 81 -108 101 -101 6 2 16 51 22 113 12 113 30 200
65 317 11 38 19 73 17 78 -2 5 -26 -5 -53 -22z"/>
<path d="M2575 2461 c-78 -19 -82 -28 -35 -75 35 -36 49 -31 94 31 53 72 53
71 -59 44z"/>
<path d="M3029 2413 c-50 -6 -71 -32 -77 -98 -4 -53 -4 -54 48 -109 58 -61 93
-72 124 -37 14 15 16 30 10 84 -5 53 -3 70 12 95 17 30 17 32 -1 52 -18 20
-33 22 -116 13z"/>
<path d="M3410 2378 c-176 -23 -238 -34 -247 -46 -16 -19 -17 -61 -3 -98 10
-25 14 -26 53 -21 23 4 143 18 267 33 193 22 227 29 243 46 38 45 7 119 -50
117 -16 -1 -134 -15 -263 -31z"/>
<path d="M2834 2390 c-29 -11 -56 -73 -52 -118 3 -32 7 -37 31 -40 16 -2 36 0
45 4 10 4 32 6 51 4 31 -2 33 0 28 22 -4 12 -7 31 -7 41 0 9 -7 17 -15 17 -7
0 -19 -8 -24 -17 -6 -10 -11 -12 -11 -6 0 7 11 20 25 29 35 23 31 42 -10 60
-19 7 -36 14 -37 13 -2 0 -12 -4 -24 -9z"/>
<path d="M2710 2276 c0 -26 24 -51 40 -41 5 3 10 19 10 36 0 24 -4 29 -25 29
-20 0 -25 -5 -25 -24z"/>
<path d="M2713 2211 c-88 -11 -139 -83 -109 -154 19 -47 48 -61 124 -59 74 1
163 38 250 104 l54 40 -38 39 -38 39 -96 -1 c-52 -1 -118 -5 -147 -8z"/>
<path d="M1375 2154 c-55 -7 -228 -27 -385 -44 -157 -18 -299 -38 -317 -45
-37 -16 -52 -53 -34 -91 20 -44 46 -48 197 -30 77 9 247 28 378 43 l240 28 15
29 c9 16 31 48 49 72 17 25 32 46 32 49 0 8 -65 4 -175 -11z"/>
<path d="M1570 2135 c-14 -17 1 -75 26 -95 7 -7 14 -17 14 -23 0 -15 -49 33
-56 55 -9 31 -29 20 -53 -29 -69 -142 -17 -220 156 -231 51 -3 80 -9 76 -15
-10 -17 -158 -1 -205 22 -50 24 -70 51 -77 106 -5 34 -10 40 -31 43 -14 1 -42
-8 -62 -20 -38 -24 -118 -121 -118 -145 0 -17 51 -38 200 -80 162 -45 271 -50
375 -14 79 27 154 66 204 109 l35 29 -22 27 c-27 35 -36 83 -22 120 10 28 10
28 -22 22 -18 -4 -82 -9 -143 -12 -103 -5 -113 -4 -155 18 -37 20 -48 33 -65
76 -21 54 -34 63 -55 37z"/>
<path d="M2067 2040 c-31 -24 -50 -82 -38 -113 19 -50 102 -93 158 -82 39 7
103 59 103 85 0 10 -16 24 -42 36 -23 10 -64 36 -90 57 -26 20 -51 37 -56 37
-5 0 -21 -9 -35 -20z"/>
<path d="M3608 1966 c-81 -62 -86 -64 -159 -70 -114 -10 -149 -17 -149 -28 0
-5 27 -43 61 -84 69 -84 74 -97 84 -217 4 -48 10 -89 14 -91 4 -3 44 25 90 61
l82 65 107 9 c59 4 111 8 116 8 14 1 -2 29 -64 109 l-60 77 -10 95 c-5 52 -10
103 -10 113 0 9 -4 17 -8 17 -5 0 -47 -29 -94 -64z m6 -182 c22 -21 20 -47 -4
-69 -42 -38 -98 12 -70 64 13 25 52 28 74 5z"/>
<path d="M2669 1953 c-36 -43 -165 -57 -281 -29 -31 7 -61 10 -67 7 -26 -17
-29 -61 -15 -217 19 -211 17 -204 58 -204 46 0 199 -27 228 -41 13 -5 46 -45
73 -87 42 -64 60 -81 105 -104 158 -81 398 -72 445 16 43 80 -9 259 -118 402
-53 70 -106 116 -192 165 -51 30 -211 109 -220 109 -1 0 -9 -7 -16 -17z"/>
<path d="M2236 1837 c-41 -30 -63 -497 -27 -541 21 -25 68 -20 87 9 16 24 16
42 0 273 -9 136 -19 253 -21 260 -6 15 -17 15 -39 -1z"/>
<path d="M2100 1822 c0 -4 -7 -64 -16 -132 -9 -69 -17 -187 -18 -263 -1 -126
1 -140 18 -153 26 -18 51 -18 70 2 13 13 16 43 16 171 0 89 7 200 16 260 8 58
13 108 10 110 -9 10 -96 14 -96 5z"/>
<path d="M2029 1784 c-47 -36 -154 -89 -230 -115 -55 -18 -78 -21 -169 -16
-104 5 -172 21 -362 83 l-77 25 -43 -27 c-116 -72 -190 -199 -171 -294 14 -72
172 -174 329 -211 137 -32 206 -15 338 85 89 67 102 74 258 125 85 29 129 48
132 59 8 26 38 303 34 308 -3 2 -20 -8 -39 -22z"/>
<path d="M447 1773 c-3 -2 7 -52 23 -109 l28 -104 -29 -90 c-34 -106 -37 -134
-11 -126 9 2 57 17 106 32 l88 27 104 -33 c57 -19 106 -32 108 -29 3 3 -6 45
-19 94 -32 115 -31 135 6 240 17 48 27 91 22 95 -4 5 -51 -5 -103 -22 -104
-33 -108 -33 -252 10 -36 11 -69 18 -71 15z m252 -195 c14 -24 14 -28 -3 -47
-25 -27 -61 -27 -80 0 -16 24 -12 47 13 67 24 19 53 11 70 -20z"/>
<path d="M1005 1287 c-19 -29 -39 -86 -32 -93 23 -23 288 -27 302 -4 6 10 -13
26 -45 35 -14 4 -60 25 -103 46 -43 22 -85 39 -92 39 -8 0 -21 -10 -30 -23z"/>
<path d="M3100 1208 c-25 -5 -90 -8 -145 -6 l-100 3 -3 -29 c-5 -40 14 -72 53
-91 39 -18 117 -20 148 -3 12 6 37 11 55 9 18 -1 44 5 58 14 20 13 25 23 22
52 -4 48 -29 63 -88 51z"/>
<path d="M939 1138 c-27 -51 8 -108 77 -127 55 -15 127 -14 150 4 12 9 32 12
55 8 78 -12 132 51 92 105 l-20 27 -173 0 c-151 0 -173 -2 -181 -17z"/>
</g>
</svg>
